<svg xmlns="http://www.w3.org/2000/svg" viewBox="0 0 32 32" width="32" height="32">
  <!-- Background -->
  <rect width="32" height="32" fill="#0f1419"/>
  
  <!-- 9x9 grid of tiles -->
  <g stroke="#121920" stroke-width="0.5">
    <!-- Row 1 -->
    <rect x="2" y="2" width="3" height="3" fill="#0f1419"/>
    <rect x="6" y="2" width="3" height="3" fill="#0f1419"/>
    <rect x="10" y="2" width="3" height="3" fill="#e74c3c"/>
    <rect x="14" y="2" width="3" height="3" fill="#0f1419"/>
    <rect x="18" y="2" width="3" height="3" fill="#0f1419"/>
    <rect x="22" y="2" width="3" height="3" fill="#0f1419"/>
    <rect x="26" y="2" width="3" height="3" fill="#0f1419"/>
    
    <!-- Row 2 -->
    <rect x="2" y="6" width="3" height="3" fill="#0f1419"/>
    <rect x="6" y="6" width="3" height="3" fill="#0f1419"/>
    <rect x="10" y="6" width="3" height="3" fill="#0f1419"/>
    <rect x="14" y="6" width="3" height="3" fill="#0f1419"/>
    <rect x="18" y="6" width="3" height="3" fill="#3498db"/>
    <rect x="22" y="6" width="3" height="3" fill="#0f1419"/>
    <rect x="26" y="6" width="3" height="3" fill="#0f1419"/>
    
    <!-- Row 3 -->
    <rect x="2" y="10" width="3" height="3" fill="#0f1419"/>
    <rect x="6" y="10" width="3" height="3" fill="#0f1419"/>
    <rect x="10" y="10" width="3" height="3" fill="#0f1419"/>
    <rect x="14" y="10" width="3" height="3" fill="#0f1419"/>
    <rect x="18" y="10" width="3" height="3" fill="#0f1419"/>
    <rect x="22" y="10" width="3" height="3" fill="#0f1419"/>
    <rect x="26" y="10" width="3" height="3" fill="#2ecc71"/>
    
    <!-- Row 4 -->
    <rect x="2" y="14" width="3" height="3" fill="#0f1419"/>
    <rect x="6" y="14" width="3" height="3" fill="#0f1419"/>
    <rect x="10" y="14" width="3" height="3" fill="#0f1419"/>
    <rect x="14" y="14" width="3" height="3" fill="#0f1419"/>
    <rect x="18" y="14" width="3" height="3" fill="#0f1419"/>
    <rect x="22" y="14" width="3" height="3" fill="#0f1419"/>
    <rect x="26" y="14" width="3" height="3" fill="#0f1419"/>
    
    <!-- Row 5 -->
    <rect x="2" y="18" width="3" height="3" fill="#9b59b6"/>
    <rect x="6" y="18" width="3" height="3" fill="#0f1419"/>
    <rect x="10" y="18" width="3" height="3" fill="#0f1419"/>
    <rect x="14" y="18" width="3" height="3" fill="#0f1419"/>
    <rect x="18" y="18" width="3" height="3" fill="#0f1419"/>
    <rect x="22" y="18" width="3" height="3" fill="#0f1419"/>
    <rect x="26" y="18" width="3" height="3" fill="#0f1419"/>
    
    <!-- Row 6 -->
    <rect x="2" y="22" width="3" height="3" fill="#0f1419"/>
    <rect x="6" y="22" width="3" height="3" fill="#0f1419"/>
    <rect x="10" y="22" width="3" height="3" fill="#0f1419"/>
    <rect x="14" y="22" width="3" height="3" fill="#f39c12"/>
    <rect x="18" y="22" width="3" height="3" fill="#0f1419"/>
    <rect x="22" y="22" width="3" height="3" fill="#0f1419"/>
    <rect x="26" y="22" width="3" height="3" fill="#0f1419"/>
    
    <!-- Row 7 -->
    <rect x="2" y="26" width="3" height="3" fill="#0f1419"/>
    <rect x="6" y="26" width="3" height="3" fill="#0f1419"/>
    <rect x="10" y="26" width="3" height="3" fill="#0f1419"/>
    <rect x="14" y="26" width="3" height="3" fill="#0f1419"/>
    <rect x="18" y="26" width="3" height="3" fill="#0f1419"/>
    <rect x="22" y="26" width="3" height="3" fill="#e67e22"/>
    <rect x="26" y="26" width="3" height="3" fill="#0f1419"/>
  </g>
  
  <!-- Fog overlay effect -->
  <circle cx="16" cy="16" r="12" fill="none" stroke="#ffd700" stroke-width="1" opacity="0.3"/>
</svg>
